<svg xmlns="http://www.w3.org/2000/svg" width="125.63" height="35" viewBox="0 0 125.63 35"><rect class="svg__rect" x="0" y="0" width="125.63" height="35" fill="#AC4657"/><rect class="svg__rect" x="125.63" y="0" width="0" height="35" fill="#389AD5"/><path class="svg__text" d="M13.95 18.19L13.95 18.19L13.95 17.39Q13.95 16.19 14.38 15.27Q14.80 14.35 15.60 13.85Q16.40 13.35 17.45 13.35L17.45 13.35Q18.86 13.35 19.73 14.12Q20.59 14.89 20.73 16.29L20.73 16.29L19.25 16.29Q19.14 15.37 18.71 14.96Q18.28 14.55 17.45 14.55L17.45 14.55Q16.48 14.55 15.97 15.26Q15.45 15.96 15.44 17.33L15.44 17.33L15.44 18.09Q15.44 19.47 15.93 20.20Q16.43 20.92 17.38 20.92L17.38 20.92Q18.25 20.92 18.69 20.53Q19.13 20.14 19.25 19.22L19.25 19.22L20.73 19.22Q20.60 20.59 19.72 21.35Q18.84 22.12 17.38 22.12L17.38 22.12Q16.36 22.12 15.59 21.63Q14.81 21.15 14.39 20.26Q13.97 19.37 13.95 18.19ZM24.77 18.00L24.77 18.00L24.77 17.52Q24.77 16.28 25.21 15.32Q25.65 14.37 26.46 13.86Q27.27 13.35 28.31 13.35Q29.35 13.35 30.16 13.85Q30.96 14.35 31.40 15.29Q31.84 16.23 31.85 17.48L31.85 17.48L31.85 17.96Q31.85 19.21 31.41 20.16Q30.98 21.10 30.18 21.61Q29.37 22.12 28.32 22.12L28.32 22.12Q27.28 22.12 26.47 21.61Q25.66 21.10 25.22 20.17Q24.78 19.23 24.77 18.00ZM26.25 17.46L26.25 17.96Q26.25 19.36 26.80 20.13Q27.35 20.90 28.32 20.90L28.32 20.90Q29.31 20.90 29.84 20.15Q30.37 19.40 30.37 17.96L30.37 17.96L30.37 17.51Q30.37 16.09 29.83 15.34Q29.29 14.58 28.31 14.58L28.31 14.58Q27.35 14.58 26.81 15.33Q26.26 16.09 26.25 17.46L26.25 17.46ZM37.80 22L36.31 22L36.31 13.47L37.80 13.47L41.61 19.54L41.61 13.47L43.08 13.47L43.08 22L41.60 22L37.80 15.95L37.80 22ZM47.55 18.19L47.55 18.19L47.55 17.39Q47.55 16.19 47.98 15.27Q48.41 14.35 49.21 13.85Q50.01 13.35 51.06 13.35L51.06 13.35Q52.47 13.35 53.33 14.12Q54.19 14.89 54.33 16.29L54.33 16.29L52.85 16.29Q52.75 15.37 52.32 14.96Q51.89 14.55 51.06 14.55L51.06 14.55Q50.09 14.55 49.57 15.26Q49.05 15.96 49.04 17.33L49.04 17.33L49.04 18.09Q49.04 19.47 49.53 20.20Q50.03 20.92 50.98 20.92L50.98 20.92Q51.86 20.92 52.30 20.53Q52.74 20.14 52.85 19.22L52.85 19.22L54.33 19.22Q54.20 20.59 53.32 21.35Q52.44 22.12 50.98 22.12L50.98 22.12Q49.97 22.12 49.19 21.63Q48.41 21.15 47.99 20.26Q47.57 19.37 47.55 18.19ZM64.00 22L58.64 22L58.64 13.47L60.13 13.47L60.13 20.82L64.00 20.82L64.00 22ZM67.99 19.16L67.99 19.16L67.99 13.47L69.47 13.47L69.47 19.18Q69.47 20.03 69.90 20.48Q70.33 20.93 71.18 20.93L71.18 20.93Q72.89 20.93 72.89 19.13L72.89 19.13L72.89 13.47L74.36 13.47L74.36 19.17Q74.36 20.53 73.49 21.32Q72.62 22.12 71.18 22.12L71.18 22.12Q69.71 22.12 68.85 21.33Q67.99 20.55 67.99 19.16ZM78.50 19.42L78.50 19.42L79.98 19.42Q79.98 20.15 80.46 20.55Q80.94 20.95 81.84 20.95L81.84 20.95Q82.61 20.95 83.00 20.63Q83.39 20.32 83.39 19.80L83.39 19.80Q83.39 19.24 83.00 18.94Q82.60 18.63 81.57 18.32Q80.54 18.01 79.93 17.63L79.93 17.63Q78.76 16.90 78.76 15.72L78.76 15.72Q78.76 14.69 79.60 14.02Q80.45 13.35 81.79 13.35L81.79 13.35Q82.68 13.35 83.38 13.68Q84.07 14.01 84.47 14.61Q84.87 15.22 84.87 15.96L84.87 15.96L83.39 15.96Q83.39 15.29 82.97 14.91Q82.56 14.54 81.78 14.54L81.78 14.54Q81.05 14.54 80.65 14.85Q80.25 15.16 80.25 15.71L80.25 15.71Q80.25 16.18 80.68 16.50Q81.11 16.81 82.11 17.10Q83.11 17.40 83.71 17.78Q84.31 18.16 84.59 18.65Q84.88 19.13 84.88 19.79L84.88 19.79Q84.88 20.86 84.06 21.49Q83.24 22.12 81.84 22.12L81.84 22.12Q80.91 22.12 80.14 21.77Q79.36 21.43 78.93 20.83Q78.50 20.22 78.50 19.42ZM90.73 22L89.25 22L89.25 13.47L90.73 13.47L90.73 22ZM95.27 18.00L95.27 18.00L95.27 17.52Q95.27 16.28 95.71 15.32Q96.15 14.37 96.96 13.86Q97.77 13.35 98.81 13.35Q99.85 13.35 100.66 13.85Q101.46 14.35 101.90 15.29Q102.34 16.23 102.35 17.48L102.35 17.48L102.35 17.96Q102.35 19.21 101.91 20.16Q101.48 21.10 100.68 21.61Q99.87 22.12 98.82 22.12L98.82 22.12Q97.78 22.12 96.97 21.61Q96.16 21.10 95.72 20.17Q95.28 19.23 95.27 18.00ZM96.75 17.46L96.75 17.96Q96.75 19.36 97.30 20.13Q97.85 20.90 98.82 20.90L98.82 20.90Q99.81 20.90 100.34 20.15Q100.87 19.40 100.87 17.96L100.87 17.96L100.87 17.51Q100.87 16.09 100.33 15.34Q99.79 14.58 98.81 14.58L98.81 14.58Q97.85 14.58 97.31 15.33Q96.76 16.09 96.75 17.46L96.75 17.46ZM108.30 22L106.81 22L106.81 13.47L108.30 13.47L112.11 19.54L112.11 13.47L113.58 13.47L113.58 22L112.10 22L108.30 15.95L108.30 22Z" fill="#FFFFFF"/><path class="svg__text" d="" fill="#FFFFFF" x="138.63"/></svg>