<svg xmlns="http://www.w3.org/2000/svg" width="32.36" height="35" viewBox="0 0 32.36 35"><rect class="svg__rect" x="0" y="0" width="32.36" height="35" fill="#5D9741"/><rect class="svg__rect" x="32.36" y="0" width="0" height="35" fill="#389AD5"/><path class="svg__text" d="M16.67 22L14.22 22L14.22 13.47L16.74 13.47Q17.87 13.47 18.74 13.97Q19.62 14.48 20.10 15.40Q20.58 16.33 20.58 17.52L20.58 17.52L20.58 17.95Q20.58 19.16 20.10 20.08Q19.61 21.00 18.72 21.50Q17.83 22 16.67 22L16.67 22ZM15.70 14.66L15.70 20.82L16.67 20.82Q17.83 20.82 18.46 20.09Q19.08 19.36 19.09 17.99L19.09 17.99L19.09 17.52Q19.09 16.13 18.49 15.40Q17.89 14.66 16.74 14.66L16.74 14.66L15.70 14.66Z" fill="#FFFFFF"/><path class="svg__text" d="" fill="#FFFFFF" x="45.36"/></svg>