<svg xmlns="http://www.w3.org/2000/svg" width="342.87" height="35" viewBox="0 0 342.87 35"><rect class="svg__rect" x="0" y="0" width="115.31" height="35" fill="#DF586E"/><rect class="svg__rect" x="113.31" y="0" width="229.56" height="35" fill="#C13B3A"/><path class="svg__text" d="M15.69 22L14.22 22L14.22 13.47L16.14 13.47L18.60 20.01L21.06 13.47L22.97 13.47L22.97 22L21.49 22L21.49 19.19L21.64 15.43L19.12 22L18.06 22L15.55 15.43L15.69 19.19L15.69 22ZM28.49 22L26.95 22L30.17 13.47L31.50 13.47L34.73 22L33.18 22L32.49 20.01L29.18 20.01L28.49 22ZM30.83 15.28L29.60 18.82L32.07 18.82L30.83 15.28ZM41.14 22L38.69 22L38.69 13.47L41.21 13.47Q42.34 13.47 43.21 13.97Q44.09 14.48 44.57 15.40Q45.05 16.33 45.05 17.52L45.05 17.52L45.05 17.95Q45.05 19.16 44.57 20.08Q44.08 21.00 43.19 21.50Q42.30 22 41.14 22L41.14 22ZM40.17 14.66L40.17 20.82L41.14 20.82Q42.30 20.82 42.93 20.09Q43.55 19.36 43.56 17.99L43.56 17.99L43.56 17.52Q43.56 16.13 42.96 15.40Q42.35 14.66 41.21 14.66L41.21 14.66L40.17 14.66ZM55.09 22L49.51 22L49.51 13.47L55.05 13.47L55.05 14.66L51.00 14.66L51.00 17.02L54.50 17.02L54.50 18.19L51.00 18.19L51.00 20.82L55.09 20.82L55.09 22ZM66.65 22L64.68 13.47L66.15 13.47L67.47 19.88L69.10 13.47L70.34 13.47L71.96 19.89L73.27 13.47L74.74 13.47L72.77 22L71.35 22L69.73 15.77L68.07 22L66.65 22ZM80.38 22L78.90 22L78.90 13.47L80.38 13.47L80.38 22ZM86.87 14.66L84.23 14.66L84.23 13.47L91.00 13.47L91.00 14.66L88.34 14.66L88.34 22L86.87 22L86.87 14.66ZM96.24 22L94.75 22L94.75 13.47L96.24 13.47L96.24 17.02L100.05 17.02L100.05 13.47L101.53 13.47L101.53 22L100.05 22L100.05 18.21L96.24 18.21L96.24 22Z" fill="#FFFFFF"/><path class="svg__text" d="M129.88 22L127.50 22L127.50 13.60L131.34 13.60Q132.48 13.60 133.32 13.98Q134.16 14.35 134.62 15.06Q135.07 15.76 135.07 16.71L135.07 16.71Q135.07 17.66 134.62 18.35Q134.16 19.05 133.32 19.42Q132.48 19.80 131.34 19.80L131.34 19.80L129.88 19.80L129.88 22ZM129.88 15.47L129.88 17.93L131.20 17.93Q131.93 17.93 132.30 17.61Q132.67 17.29 132.67 16.71L132.67 16.71Q132.67 16.12 132.30 15.80Q131.93 15.47 131.20 15.47L131.20 15.47L129.88 15.47ZM142.20 22L139.83 22L139.83 13.60L142.20 13.60L142.20 16.76L145.45 16.76L145.45 13.60L147.82 13.60L147.82 22L145.45 22L145.45 18.72L142.20 18.72L142.20 22ZM155.36 22L152.98 22L152.98 13.60L156.82 13.60Q157.96 13.60 158.80 13.98Q159.64 14.35 160.10 15.06Q160.56 15.76 160.56 16.71L160.56 16.71Q160.56 17.66 160.10 18.35Q159.64 19.05 158.80 19.42Q157.96 19.80 156.82 19.80L156.82 19.80L155.36 19.80L155.36 22ZM155.36 15.47L155.36 17.93L156.68 17.93Q157.41 17.93 157.78 17.61Q158.15 17.29 158.15 16.71L158.15 16.71Q158.15 16.12 157.78 15.80Q157.41 15.47 156.68 15.47L156.68 15.47L155.36 15.47ZM171.70 21.24L171.70 21.24L172.47 19.49Q173.04 19.86 173.78 20.09Q174.53 20.32 175.25 20.32L175.25 20.32Q176.61 20.32 176.62 19.64L176.62 19.64Q176.62 19.28 176.23 19.11Q175.84 18.93 174.97 18.74L174.97 18.74Q174.02 18.53 173.39 18.30Q172.75 18.06 172.30 17.55Q171.84 17.03 171.84 16.16L171.84 16.16Q171.84 15.39 172.26 14.77Q172.68 14.15 173.51 13.79Q174.35 13.43 175.56 13.43L175.56 13.43Q176.38 13.43 177.19 13.62Q177.99 13.80 178.61 14.17L178.61 14.17L177.88 15.93Q176.68 15.28 175.54 15.28L175.54 15.28Q174.84 15.28 174.51 15.49Q174.19 15.70 174.19 16.04L174.19 16.04Q174.19 16.37 174.58 16.54Q174.96 16.71 175.81 16.89L175.81 16.89Q176.77 17.10 177.40 17.33Q178.03 17.56 178.49 18.07Q178.95 18.58 178.95 19.46L178.95 19.46Q178.95 20.21 178.54 20.83Q178.12 21.44 177.28 21.80Q176.44 22.17 175.23 22.17L175.23 22.17Q174.21 22.17 173.25 21.92Q172.29 21.67 171.70 21.24ZM183.10 17.80L183.10 17.80Q183.10 16.55 183.71 15.55Q184.31 14.56 185.37 14.00Q186.44 13.43 187.77 13.43L187.77 13.43Q189.10 13.43 190.16 14.00Q191.22 14.56 191.83 15.55Q192.44 16.55 192.44 17.80L192.44 17.80Q192.44 19.05 191.83 20.04Q191.22 21.04 190.16 21.60Q189.10 22.17 187.77 22.17L187.77 22.17Q186.44 22.17 185.37 21.60Q184.31 21.04 183.71 20.04Q183.10 19.05 183.10 17.80ZM185.50 17.80L185.50 17.80Q185.50 18.51 185.80 19.05Q186.10 19.60 186.62 19.90Q187.13 20.20 187.77 20.20L187.77 20.20Q188.41 20.20 188.92 19.90Q189.44 19.60 189.74 19.05Q190.03 18.51 190.03 17.80L190.03 17.80Q190.03 17.09 189.74 16.54Q189.44 16 188.92 15.70Q188.41 15.40 187.77 15.40L187.77 15.40Q187.13 15.40 186.62 15.70Q186.10 16 185.80 16.54Q185.50 17.09 185.50 17.80ZM203.55 22L197.17 22L197.17 13.60L199.54 13.60L199.54 20.11L203.55 20.11L203.55 22ZM210.35 22L207.97 22L207.97 13.60L210.35 13.60L210.35 22ZM219.50 22L215.52 22L215.52 13.60L219.50 13.60Q220.88 13.60 221.95 14.12Q223.01 14.63 223.60 15.58Q224.19 16.53 224.19 17.80L224.19 17.80Q224.19 19.07 223.60 20.02Q223.01 20.97 221.95 21.48Q220.88 22 219.50 22L219.50 22ZM217.90 15.50L217.90 20.10L219.40 20.10Q220.48 20.10 221.13 19.49Q221.79 18.88 221.79 17.80L221.79 17.80Q221.79 16.72 221.13 16.11Q220.48 15.50 219.40 15.50L219.40 15.50L217.90 15.50ZM238.27 22L235.89 22L235.89 13.60L239.73 13.60Q240.87 13.60 241.71 13.98Q242.55 14.35 243.01 15.06Q243.47 15.76 243.47 16.71L243.47 16.71Q243.47 17.66 243.01 18.35Q242.55 19.05 241.71 19.42Q240.87 19.80 239.73 19.80L239.73 19.80L238.27 19.80L238.27 22ZM238.27 15.47L238.27 17.93L239.59 17.93Q240.32 17.93 240.69 17.61Q241.06 17.29 241.06 16.71L241.06 16.71Q241.06 16.12 240.69 15.80Q240.32 15.47 239.59 15.47L239.59 15.47L238.27 15.47ZM250.60 22L248.22 22L248.22 13.60L252.06 13.60Q253.20 13.60 254.04 13.98Q254.88 14.35 255.34 15.06Q255.79 15.76 255.79 16.71L255.79 16.71Q255.79 17.62 255.37 18.30Q254.94 18.98 254.15 19.36L254.15 19.36L255.96 22L253.42 22L251.89 19.77L250.60 19.77L250.60 22ZM250.60 15.47L250.60 17.93L251.92 17.93Q252.65 17.93 253.02 17.61Q253.39 17.29 253.39 16.71L253.39 16.71Q253.39 16.12 253.02 15.79Q252.65 15.47 251.92 15.47L251.92 15.47L250.60 15.47ZM262.96 22L260.58 22L260.58 13.60L262.96 13.60L262.96 22ZM270.47 22L268.13 22L268.13 13.60L270.09 13.60L273.80 18.07L273.80 13.60L276.13 13.60L276.13 22L274.18 22L270.47 17.52L270.47 22ZM280.86 17.80L280.86 17.80Q280.86 16.54 281.46 15.54Q282.06 14.55 283.11 13.99Q284.16 13.43 285.48 13.43L285.48 13.43Q286.63 13.43 287.56 13.84Q288.48 14.25 289.09 15.02L289.09 15.02L287.58 16.39Q286.77 15.40 285.60 15.40L285.60 15.40Q284.92 15.40 284.38 15.70Q283.85 16 283.55 16.54Q283.26 17.09 283.26 17.80L283.26 17.80Q283.26 18.51 283.55 19.05Q283.85 19.60 284.38 19.90Q284.92 20.20 285.60 20.20L285.60 20.20Q286.77 20.20 287.58 19.22L287.58 19.22L289.09 20.58Q288.48 21.35 287.56 21.76Q286.63 22.17 285.48 22.17L285.48 22.17Q284.16 22.17 283.11 21.61Q282.06 21.05 281.46 20.05Q280.86 19.06 280.86 17.80ZM296.01 22L293.63 22L293.63 13.60L296.01 13.60L296.01 22ZM303.56 22L301.18 22L301.18 13.60L305.03 13.60Q306.16 13.60 307.00 13.98Q307.84 14.35 308.30 15.06Q308.76 15.76 308.76 16.71L308.76 16.71Q308.76 17.66 308.30 18.35Q307.84 19.05 307.00 19.42Q306.16 19.80 305.03 19.80L305.03 19.80L303.56 19.80L303.56 22ZM303.56 15.47L303.56 17.93L304.88 17.93Q305.61 17.93 305.98 17.61Q306.36 17.29 306.36 16.71L306.36 16.71Q306.36 16.12 305.98 15.80Q305.61 15.47 304.88 15.47L304.88 15.47L303.56 15.47ZM319.90 22L313.51 22L313.51 13.60L315.89 13.60L315.89 20.11L319.90 20.11L319.90 22ZM331.06 22L324.31 22L324.31 13.60L330.91 13.60L330.91 15.44L326.67 15.44L326.67 16.85L330.40 16.85L330.40 18.63L326.67 18.63L326.67 20.17L331.06 20.17L331.06 22Z" fill="#FFFFFF" x="126.31"/></svg>