<svg xmlns="http://www.w3.org/2000/svg" width="235.82" height="35" viewBox="0 0 235.82 35"><rect class="svg__rect" x="0" y="0" width="74.13" height="35" fill="#262121"/><rect class="svg__rect" x="72.13" y="0" width="163.69" height="35" fill="#60686C"/><path class="svg__text" d="M15.69 22L14.22 22L14.22 13.47L16.14 13.47L18.60 20.01L21.06 13.47L22.97 13.47L22.97 22L21.49 22L21.49 19.19L21.64 15.43L19.12 22L18.06 22L15.55 15.43L15.69 19.19L15.69 22ZM33.29 22L27.71 22L27.71 13.47L33.25 13.47L33.25 14.66L29.19 14.66L29.19 17.02L32.70 17.02L32.70 18.19L29.19 18.19L29.19 20.82L33.29 20.82L33.29 22ZM38.97 22L37.48 22L37.48 13.47L40.48 13.47Q41.96 13.47 42.76 14.13Q43.57 14.79 43.57 16.05L43.57 16.05Q43.57 16.90 43.15 17.48Q42.74 18.06 42.00 18.37L42.00 18.37L43.92 21.92L43.92 22L42.33 22L40.62 18.71L38.97 18.71L38.97 22ZM38.97 14.66L38.97 17.52L40.49 17.52Q41.24 17.52 41.66 17.15Q42.08 16.77 42.08 16.11L42.08 16.11Q42.08 15.43 41.69 15.05Q41.31 14.68 40.53 14.66L40.53 14.66L38.97 14.66ZM47.69 18.19L47.69 18.19L47.69 17.39Q47.69 16.19 48.12 15.27Q48.55 14.35 49.35 13.85Q50.15 13.35 51.20 13.35L51.20 13.35Q52.61 13.35 53.47 14.12Q54.33 14.89 54.47 16.29L54.47 16.29L52.99 16.29Q52.89 15.37 52.46 14.96Q52.03 14.55 51.20 14.55L51.20 14.55Q50.23 14.55 49.71 15.26Q49.19 15.96 49.18 17.33L49.18 17.33L49.18 18.09Q49.18 19.47 49.68 20.20Q50.17 20.92 51.13 20.92L51.13 20.92Q52.00 20.92 52.44 20.53Q52.88 20.14 52.99 19.22L52.99 19.22L54.47 19.22Q54.34 20.59 53.46 21.35Q52.58 22.12 51.13 22.12L51.13 22.12Q50.11 22.12 49.33 21.63Q48.55 21.15 48.13 20.26Q47.71 19.37 47.69 18.19ZM60.35 22L58.87 22L58.87 13.47L60.35 13.47L60.35 22Z" fill="#FFFFFF"/><path class="svg__text" d="M92.70 22L86.32 22L86.32 13.60L88.70 13.60L88.70 20.11L92.70 20.11L92.70 22ZM99.50 22L97.12 22L97.12 13.60L99.50 13.60L99.50 22ZM104.25 17.80L104.25 17.80Q104.25 16.55 104.85 15.55Q105.45 14.56 106.52 14.00Q107.58 13.43 108.91 13.43L108.91 13.43Q110.24 13.43 111.31 14.00Q112.37 14.56 112.98 15.55Q113.58 16.55 113.58 17.80L113.58 17.80Q113.58 19.05 112.98 20.04Q112.37 21.04 111.31 21.60Q110.25 22.17 108.91 22.17L108.91 22.17Q107.58 22.17 106.52 21.60Q105.45 21.04 104.85 20.04Q104.25 19.05 104.25 17.80ZM106.64 17.80L106.64 17.80Q106.64 18.51 106.95 19.05Q107.25 19.60 107.76 19.90Q108.28 20.20 108.91 20.20L108.91 20.20Q109.55 20.20 110.07 19.90Q110.58 19.60 110.88 19.05Q111.18 18.51 111.18 17.80L111.18 17.80Q111.18 17.09 110.88 16.54Q110.58 16 110.07 15.70Q109.55 15.40 108.91 15.40L108.91 15.40Q108.27 15.40 107.76 15.70Q107.25 16 106.95 16.54Q106.64 17.09 106.64 17.80ZM120.69 22L118.31 22L118.31 13.60L122.15 13.60Q123.30 13.60 124.13 13.98Q124.97 14.35 125.43 15.06Q125.89 15.76 125.89 16.71L125.89 16.71Q125.89 17.62 125.46 18.30Q125.03 18.98 124.24 19.36L124.24 19.36L126.05 22L123.51 22L121.98 19.77L120.69 19.77L120.69 22ZM120.69 15.47L120.69 17.93L122.01 17.93Q122.74 17.93 123.11 17.61Q123.48 17.29 123.48 16.71L123.48 16.71Q123.48 16.12 123.11 15.79Q122.74 15.47 122.01 15.47L122.01 15.47L120.69 15.47ZM137.22 17.80L137.22 17.80Q137.22 16.54 137.82 15.54Q138.41 14.55 139.47 13.99Q140.52 13.43 141.84 13.43L141.84 13.43Q142.99 13.43 143.91 13.84Q144.84 14.25 145.45 15.02L145.45 15.02L143.94 16.39Q143.12 15.40 141.96 15.40L141.96 15.40Q141.27 15.40 140.74 15.70Q140.21 16 139.91 16.54Q139.61 17.09 139.61 17.80L139.61 17.80Q139.61 18.51 139.91 19.05Q140.21 19.60 140.74 19.90Q141.27 20.20 141.96 20.20L141.96 20.20Q143.12 20.20 143.94 19.22L143.94 19.22L145.45 20.58Q144.84 21.35 143.92 21.76Q142.99 22.17 141.84 22.17L141.84 22.17Q140.52 22.17 139.47 21.61Q138.41 21.05 137.82 20.05Q137.22 19.06 137.22 17.80ZM152.36 22L149.99 22L149.99 13.60L152.36 13.60L152.36 16.76L155.60 16.76L155.60 13.60L157.98 13.60L157.98 22L155.60 22L155.60 18.72L152.36 18.72L152.36 22ZM164.56 22L162.13 22L165.84 13.60L168.19 13.60L171.90 22L169.43 22L168.77 20.37L165.22 20.37L164.56 22ZM167.00 15.93L165.91 18.61L168.07 18.61L167.00 15.93ZM178.25 22L176.05 22L176.05 13.60L178.01 13.60L180.96 18.45L183.85 13.60L185.80 13.60L185.82 22L183.64 22L183.62 17.55L181.46 21.17L180.40 21.17L178.25 17.67L178.25 22ZM197.37 22L190.98 22L190.98 13.60L193.36 13.60L193.36 20.11L197.37 20.11L197.37 22ZM203.21 22L200.78 22L204.49 13.60L206.83 13.60L210.55 22L208.08 22L207.42 20.37L203.87 20.37L203.21 22ZM205.64 15.93L204.56 18.61L206.72 18.61L205.64 15.93ZM221.28 20.85L221.28 20.85Q221.28 20.31 221.67 19.96Q222.05 19.61 222.65 19.61L222.65 19.61Q223.25 19.61 223.63 19.96Q224.01 20.31 224.01 20.85L224.01 20.85Q224.01 21.37 223.62 21.74Q223.24 22.11 222.65 22.11L222.65 22.11Q222.05 22.11 221.67 21.74Q221.28 21.38 221.28 20.85ZM221.74 18.94L221.29 13.60L224.01 13.60L223.55 18.94L221.74 18.94Z" fill="#FFFFFF" x="85.13"/></svg>